# xmcd
#
# Track frame offsets:
#	150
#	37089
#	87238
#	112941
#	152857
#	214193
#	233693
#	245464
#	265854
#	276742
#	285040
#
# Disc length: 4135 seconds
#
# Revision: 0
# Processed by: cddbd v1.5.2PL0 Copyright (c) Steve Scherf et al.
# Submitted via: EasyCDDAExtractor 11.6.0.1
#
DISCID=9710250b
DTITLE=Jimi Hendrix - Studio 69 (01)
DYEAR=1969
DGENRE=Blues
TTITLE0=World Traveler
TTITLE1=It´s Too Bad 1
TTITLE2=It´s Too Bad
TTITLE3=It´s Too Bad 3
TTITLE4=Hitchings
TTITLE5=Midnight Lightning
TTITLE6=Cryin´ Blue Rain
TTITLE7=Lover Man
TTITLE8=Room Full Of Mirrors
TTITLE9=Shame Shame Shame
TTITLE10=Sunshine Of Your Love
EXTD=
EXTT0=
EXTT1=
EXTT2=
EXTT3=
EXTT4=
EXTT5=
EXTT6=
EXTT7=
EXTT8=
EXTT9=
EXTT10=
PLAYORDER=
